<svg xmlns="http://www.w3.org/2000/svg" viewBox="0 0 512 512" role="img" aria-label="Croatian Boat Rental – Skipper Zadar">
  <rect width="512" height="512" rx="96" fill="#f7f2e6"/>
  <g fill="#13324a">
    <!-- Skipper -->
    <g>
      <path d="M300 150c0-14 11-25 25-25s25 11 25 25c0 6-2 11-5 15h-40c-3-4-5-9-5-15z"/>
      <path d="M292 143c0-4 3-7 7-7h52c4 0 7 3 7 7 0 4-3 7-7 7h-52c-4 0-7-3-7-7z"/>
      <path d="M312 178c-16 3-27 15-29 34l-1 12h88l-1-12c-2-19-13-31-29-34-4 4-9 6-14 6s-10-2-14-6z"/>
    </g>
    <!-- Boat hull -->
    <path d="M96 300h300l-34 62c-6 11-18 18-31 18H150c-14 0-27-8-33-21l-21-59z"/>
    <!-- Cabin / windshield -->
    <path d="M176 236h150c8 0 15 5 18 12l14 40H150l14-40c3-7 10-12 12-12z" fill="#13324a"/>
    <path d="M188 252l-9 28h64v-28h-55zm76 0v28h62l-10-24c-1-3-4-4-7-4h-45z" fill="#f7f2e6"/>
    <!-- Waves -->
    <path d="M70 402c26 0 26 16 52 16s26-16 52-16 26 16 52 16 26-16 52-16 26 16 52 16 26-16 52-16v18c-26 0-26 16-52 16s-26-16-52-16-26 16-52 16-26-16-52-16-26 16-52 16-26-16-52-16z"/>
  </g>
</svg>
